<?xml version="1.0" encoding="iso-8859-1"?>
<!-- Generator: Adobe Illustrator 19.0.0, SVG Export Plug-In . SVG Version: 6.00 Build 0)  -->
<svg version="1.1" id="Capa_1" xmlns="http://www.w3.org/2000/svg" xmlns:xlink="http://www.w3.org/1999/xlink" x="0px" y="0px"
	 viewBox="0 0 384 384" style="enable-background:new 0 0 384 384;" xml:space="preserve">
<g>
	<g>
		<path d="M192,0C86,0,0,86,0,192s86,192,192,192s192-86,192-192S298,0,192,0z M192,341.3c-82.5,0-149.3-66.8-149.3-149.3
			S109.5,42.7,192,42.7S341.3,109.6,341.3,192S274.5,341.3,192,341.3z"/>
	</g>
</g>
<g>
	<g>
		<polygon points="213.3,170.7 213.3,106.7 170.7,106.7 170.7,170.7 106.7,170.7 106.7,213.3 170.7,213.3 170.7,277.3 213.3,277.3 
			213.3,213.3 277.3,213.3 277.3,170.7 		"/>
	</g>
</g>
<g>
</g>
<g>
</g>
<g>
</g>
<g>
</g>
<g>
</g>
<g>
</g>
<g>
</g>
<g>
</g>
<g>
</g>
<g>
</g>
<g>
</g>
<g>
</g>
<g>
</g>
<g>
</g>
<g>
</g>
</svg>
