<?xml version="1.0" encoding="iso-8859-1"?>
<!-- Generator: Adobe Illustrator 19.0.0, SVG Export Plug-In . SVG Version: 6.00 Build 0)  -->
<svg version="1.1" id="Capa_1" xmlns="http://www.w3.org/2000/svg" xmlns:xlink="http://www.w3.org/1999/xlink" x="0px" y="0px"
	 viewBox="0 0 512 512" style="enable-background:new 0 0 512 512;" xml:space="preserve">
<g>
	<g>
		<path d="M257,0C116.4,0,0,114.39,0,255s116.4,257,257,257c140.59,0,255-116.39,255-257S397.59,0,257,0z M257,422
			c-90.97,0-167-76.02-167-167c0-28.43,7.2-55.91,20.94-80.42l226.48,226.49C312.92,414.81,285.44,422,257,422z M401.05,337.42
			L174.58,110.93C199.07,97.19,228.55,90,257,90c90.96,0,165,74.02,165,165C422,283.43,414.79,312.91,401.05,337.42z"/>
	</g>
</g>
<g>
</g>
<g>
</g>
<g>
</g>
<g>
</g>
<g>
</g>
<g>
</g>
<g>
</g>
<g>
</g>
<g>
</g>
<g>
</g>
<g>
</g>
<g>
</g>
<g>
</g>
<g>
</g>
<g>
</g>
</svg>
