<?xml version="1.0" encoding="iso-8859-1"?>
<!-- Generator: Adobe Illustrator 19.0.0, SVG Export Plug-In . SVG Version: 6.00 Build 0)  -->
<svg version="1.1" id="Capa_1" xmlns="http://www.w3.org/2000/svg" xmlns:xlink="http://www.w3.org/1999/xlink" x="0px" y="0px"
	 viewBox="0 0 512 512" style="enable-background:new 0 0 512 512;" xml:space="preserve">
<g>
	<g>
		<path d="M332,0v105c0,8.291-6.709,15-15,15c-8.291,0-15-6.709-15-15V0H150v135c0,8.276,6.738,15,15,15h182c8.262,0,15-6.724,15-15
			V0H332z"/>
	</g>
</g>
<g>
	<g>
		<path d="M377,270H135c-8.262,0-15,6.724-15,15v15h272v-15C392,276.724,385.262,270,377,270z"/>
	</g>
</g>
<g>
	<g>
		<rect x="120" y="330" width="272" height="182"/>
	</g>
</g>
<g>
	<g>
		<path d="M498.816,85.605l-72.422-72.422C418.016,4.805,406.414,0,394.578,0H392v135c0,24.814-20.186,45-45,45H165
			c-24.814,0-45-20.186-45-45V0H45C20.186,0,0,20.186,0,45v422c0,24.814,20.186,45,45,45h45V285c0-24.814,20.186-45,45-45h242
			c24.814,0,45,20.186,45,45v227h45c24.814,0,45-20.186,45-45V117.422C512,105.41,507.313,94.102,498.816,85.605z"/>
	</g>
</g>
<g>
</g>
<g>
</g>
<g>
</g>
<g>
</g>
<g>
</g>
<g>
</g>
<g>
</g>
<g>
</g>
<g>
</g>
<g>
</g>
<g>
</g>
<g>
</g>
<g>
</g>
<g>
</g>
<g>
</g>
</svg>
