<?xml version="1.0" encoding="UTF-8"?>
<!DOCTYPE svg PUBLIC "-//W3C//DTD SVG 1.1//EN" "http://www.w3.org/Graphics/SVG/1.1/DTD/svg11.dtd">
<!-- Creator: CorelDRAW 2020 (64-Bit) -->
<svg xmlns="http://www.w3.org/2000/svg" xml:space="preserve" width="210mm" height="297mm" version="1.1" style="shape-rendering:geometricPrecision; text-rendering:geometricPrecision; image-rendering:optimizeQuality; fill-rule:evenodd; clip-rule:evenodd"
viewBox="0 0 21000 29700"
 xmlns:xlink="http://www.w3.org/1999/xlink"
 xmlns:xodm="http://www.corel.com/coreldraw/odm/2003">
 <defs>
  <style type="text/css">
   <![CDATA[
    .fil0 {fill:black;fill-rule:nonzero}
   ]]>
  </style>
 </defs>
 <g id="Plan_x0020_1">
  <metadata id="CorelCorpID_0Corel-Layer"/>
  <path id="XMLID_227_" class="fil0" d="M8199.34 18852.99c2.55,3.83 5.11,7.66 7.71,11.46l-7.71 -11.46zm193.99 -6913.81l29.89 -5302.49 -5756.88 0 0 16323.64 12505.48 0 0 -3593.71 -3348.47 0 452.98 479.12c434.16,461.46 412.04,1187.52 -49.42,1621.68 -461.46,434.16 -1187.52,412.04 -1621.68,-49.42l-2227.42 -2355.94c-7.09,-6.54 -14.08,-13.16 -21,-19.87l-0.59 -0.58c-6.56,-6.37 -13.06,-12.81 -19.46,-19.34l-2.03 -2.09c-6.14,-6.28 -12.21,-12.62 -18.2,-19.05l-1.22 -1.31c-6.03,-6.48 -11.99,-13.03 -17.87,-19.65l-1.7 -1.92c-5.58,-6.31 -11.1,-12.68 -16.54,-19.11l-2.89 -3.42c-5.2,-6.19 -10.33,-12.44 -15.39,-18.73l-2.62 -3.26c-4.79,-6 -9.52,-12.05 -14.19,-18.15l-3.61 -4.7 -8.12 -10.83c-2.89,-3.9 -5.75,-7.83 -8.59,-11.76l-0.05 -0.07c-2.78,-3.85 -5.53,-7.72 -8.26,-11.61l-0.13 -0.18c-2.79,-3.97 -5.56,-7.97 -8.3,-11.98 -2.6,-3.8 -5.16,-7.63 -7.71,-11.46l-3.26 -4.94c-4.07,-6.17 -8.08,-12.39 -12.03,-18.64l-4.76 -7.64c-3.19,-5.15 -6.36,-10.31 -9.47,-15.51l-5.5 -9.3c-2.97,-5.06 -5.88,-10.15 -8.78,-15.26l-5.52 -9.88c-2.5,-4.52 -4.96,-9.06 -7.4,-13.61l-5.96 -11.29c-2.42,-4.65 -4.81,-9.32 -7.17,-14.01l-5.72 -11.5 -5.21 -10.77c-2.46,-5.16 -4.87,-10.34 -7.25,-15.54l-3.86 -8.46c-2.59,-5.77 -5.12,-11.58 -7.62,-17.4l-3.86 -9.1c-2.46,-5.89 -4.87,-11.8 -7.24,-17.74l-3.13 -7.92c-2.45,-6.28 -4.85,-12.59 -7.2,-18.93l-2.96 -8.12c-2.29,-6.35 -4.55,-12.72 -6.74,-19.12l-2.47 -7.39c-2.23,-6.67 -4.42,-13.38 -6.53,-20.11l-1.93 -6.29c-2.24,-7.3 -4.43,-14.61 -6.53,-21.98l-1.01 -3.63c-2.16,-7.66 -4.25,-15.34 -6.25,-23.06l-0.98 -3.84c-1.94,-7.6 -3.8,-15.24 -5.59,-22.9l-0.92 -3.89c-1.79,-7.78 -3.48,-15.59 -5.11,-23.43l-1.09 -5.25c-1.59,-7.84 -3.1,-15.73 -4.53,-23.63l-0.82 -4.53c-1.41,-7.95 -2.71,-15.92 -3.96,-23.93l-0.78 -5.03c-1.21,-8.01 -2.33,-16.04 -3.37,-24.1l-0.58 -4.58c-1.02,-8.17 -1.96,-16.36 -2.81,-24.58l-0.44 -4.39c-0.82,-8.21 -1.55,-16.44 -2.19,-24.7l-0.37 -4.93c-0.63,-8.47 -1.17,-16.96 -1.61,-25.47l-0.11 -2.39c-0.46,-9.15 -0.8,-18.32 -1.04,-27.52l-0.03 -1.49c-0.23,-9.53 -0.37,-19.07 -0.37,-28.65 0,-9.58 0.14,-19.13 0.37,-28.65l0.03 -1.49c0.24,-9.2 0.59,-18.37 1.04,-27.52l0.11 -2.39c0.44,-8.52 0.99,-17 1.61,-25.47l0.37 -4.93c0.64,-8.26 1.37,-16.49 2.19,-24.7l0.44 -4.39c0.85,-8.22 1.79,-16.41 2.81,-24.58l0.58 -4.58c1.04,-8.06 2.17,-16.09 3.37,-24.1l0.78 -5.03c1.24,-8.01 2.55,-15.98 3.96,-23.93l0.82 -4.53c1.43,-7.9 2.93,-15.79 4.53,-23.63l1.09 -5.25c1.63,-7.84 3.32,-15.65 5.11,-23.43l0.92 -3.89c1.79,-7.66 3.64,-15.3 5.59,-22.9l0.98 -3.84c2,-7.72 4.09,-15.4 6.25,-23.06l1.01 -3.63c2.1,-7.36 4.29,-14.68 6.53,-21.98l1.93 -6.29c2.11,-6.73 4.3,-13.43 6.53,-20.11l2.47 -7.39c2.18,-6.4 4.44,-12.77 6.74,-19.12l2.96 -8.12c2.34,-6.34 4.74,-12.65 7.2,-18.93l3.13 -7.92c2.37,-5.94 4.78,-11.85 7.24,-17.74l3.86 -9.1c2.5,-5.82 5.03,-11.63 7.62,-17.4l3.86 -8.46c2.38,-5.2 4.79,-10.38 7.25,-15.54l5.21 -10.77c1.88,-3.85 3.8,-7.68 5.72,-11.5 2.36,-4.69 4.75,-9.36 7.17,-14.01l5.96 -11.29c2.44,-4.55 4.9,-9.09 7.4,-13.61l5.52 -9.88c2.89,-5.11 5.82,-10.2 8.78,-15.26l5.5 -9.3c3.11,-5.2 6.27,-10.37 9.47,-15.51l4.76 -7.64c3.95,-6.26 7.96,-12.47 12.03,-18.64l3.26 -4.94 7.71 -11.46c2.74,-4.01 5.51,-8.01 8.3,-11.98l0.13 -0.18c2.73,-3.89 5.48,-7.76 8.26,-11.61l0.05 -0.07c2.84,-3.94 5.7,-7.86 8.59,-11.76l8.12 -10.83 3.61 -4.7c4.67,-6.1 9.4,-12.15 14.19,-18.15l2.62 -3.26c5.07,-6.3 10.2,-12.55 15.39,-18.73l2.89 -3.42c5.44,-6.43 10.96,-12.8 16.54,-19.11l1.7 -1.92c5.88,-6.62 11.84,-13.17 17.87,-19.65l1.22 -1.31c5.99,-6.42 12.06,-12.76 18.2,-19.05l2.03 -2.09c6.41,-6.53 12.9,-12.97 19.46,-19.34l0.59 -0.58c6.92,-6.71 13.92,-13.34 21,-19.87l2227.42 -2355.94c434.16,-461.46 1160.22,-483.58 1621.68,-49.42 461.46,434.16 483.58,1160.22 49.42,1621.68l-452.98 479.12 3348.47 0 0 -3807.53 -5599.21 0c-111.31,0 -218.13,-19.11 -317.46,-54.14 -500.79,-144.31 -867.12,-605.95 -867.12,-1153.18 0,-37.98 1.85,-75.51 5.3,-112.59zm1069.94 -7589.18c411.11,0 669.72,11.25 994.89,327.62l0.99 -1.02 6711.19 6517.36c355.09,345.38 356.81,680.46 356.81,1135.79l0 4736.87 1963.26 0c635.12,0 1150,514.88 1150,1150 0,635.12 -514.88,1150 -1150,1150l-1963.26 0 0 5028.83c0,527.17 -427.39,954.55 -954.55,954.55l-15272.72 0.01c-527.17,0 -954.55,-427.39 -954.55,-954.55l0 -19090.91c0,-527.17 427.38,-954.55 954.55,-954.55l8163.39 0zm1340.98 3997.91l-14.12 2503.86 2592.44 0 -2578.32 -2503.86z"/>
 </g>
</svg>
