<?xml version="1.0" encoding="iso-8859-1"?>
<!-- Generator: Adobe Illustrator 19.0.0, SVG Export Plug-In . SVG Version: 6.00 Build 0)  -->
<svg version="1.1" id="Capa_1" xmlns="http://www.w3.org/2000/svg" xmlns:xlink="http://www.w3.org/1999/xlink" x="0px" y="0px"
	 viewBox="0 0 512.004 512.004" style="enable-background:new 0 0 512.004 512.004;" xml:space="preserve">
<g>
	<g>
		<path d="M192.106,42.399h-85.545C47.709,42.399,0,90.142,0,149.065c0,51.64,36.618,94.709,85.333,104.553v76.244
			c0,11.747,7.443,15.249,16.519,7.906l68.814-55.67v-54.88L128,261.736v-43.024l-34.216-6.914
			c-29.517-5.965-51.118-32.112-51.118-62.732c0-35.363,28.611-64,63.894-64h85.545c27.842,0,51.502,17.796,60.265,42.667h44.166
			C286.674,79.044,243.706,42.399,192.106,42.399z"/>
	</g>
</g>
<g>
	<g>
		<path d="M405.443,170.399h-85.545c-58.906,0-106.561,47.756-106.561,106.667c0,54.87,41.37,100.044,94.584,106.001l102.23,82.703
			c9.076,7.343,16.519,3.841,16.519-7.907v-76.244c48.715-9.844,85.333-52.913,85.333-104.553
			C512.004,218.142,464.295,170.399,405.443,170.399z M418.219,339.797l-34.216,6.914v43.024l-58.943-47.684l-12.394-1.387
			c-32.085-3.591-56.663-30.921-56.663-63.599c0-35.378,28.584-64,63.894-64h85.545c35.283,0,63.894,28.637,63.894,64
			C469.337,307.685,447.737,333.832,418.219,339.797z"/>
	</g>
</g>
<g>
</g>
<g>
</g>
<g>
</g>
<g>
</g>
<g>
</g>
<g>
</g>
<g>
</g>
<g>
</g>
<g>
</g>
<g>
</g>
<g>
</g>
<g>
</g>
<g>
</g>
<g>
</g>
<g>
</g>
</svg>
