<?xml version="1.0" encoding="iso-8859-1"?>
<!-- Generator: Adobe Illustrator 19.0.0, SVG Export Plug-In . SVG Version: 6.00 Build 0)  -->
<svg version="1.1" id="Capa_1" xmlns="http://www.w3.org/2000/svg" xmlns:xlink="http://www.w3.org/1999/xlink" x="0px" y="0px"
	 viewBox="0 0 426.372 426.372" style="enable-background:new 0 0 426.372 426.372;" xml:space="preserve">
<g>
	<g>
		<path d="M320.077,128v234.359c0,11.841-9.489,21.347-21.227,21.347H127.971c-11.723,0-21.227-9.534-21.227-21.347V128H64.077
			v234.359c0,35.346,28.576,64.014,63.894,64.014H298.85c35.319,0,63.894-28.625,63.894-64.014V128H320.077z"/>
	</g>
</g>
<g>
	<g>
		<rect x="148.96" y="127.617" width="42.667" height="213.716"/>
	</g>
</g>
<g>
	<g>
		<rect x="234.52" y="128" width="42.667" height="213.333"/>
	</g>
</g>
<g>
	<g>
		<rect x="21.186" y="42.667" width="384" height="42.667"/>
	</g>
</g>
<g>
	<g>
		<path d="M255.454,0h-84.905c-11.798,0-21.362,9.469-21.362,21.333v21.333h127.63V21.333C276.816,9.551,267.223,0,255.454,0z"/>
	</g>
</g>
<g>
</g>
<g>
</g>
<g>
</g>
<g>
</g>
<g>
</g>
<g>
</g>
<g>
</g>
<g>
</g>
<g>
</g>
<g>
</g>
<g>
</g>
<g>
</g>
<g>
</g>
<g>
</g>
<g>
</g>
</svg>
