<?xml version="1.0" encoding="UTF-8"?>
<!DOCTYPE svg PUBLIC "-//W3C//DTD SVG 1.0//EN" "http://www.w3.org/TR/2001/REC-SVG-20010904/DTD/svg10.dtd">
<!-- Creator: CorelDRAW X6 -->
<svg xmlns="http://www.w3.org/2000/svg" xml:space="preserve" width="4.2332mm" height="4.2332mm" version="1.0" style="shape-rendering:geometricPrecision; text-rendering:geometricPrecision; image-rendering:optimizeQuality; fill-rule:evenodd; clip-rule:evenodd"
viewBox="0 0 423 423"
 xmlns:xlink="http://www.w3.org/1999/xlink">
 <defs>
  <style type="text/css">
   <![CDATA[
    .fil2 {fill:black}
    .fil0 {fill:#999999}
    .fil1 {fill:white}
   ]]>
  </style>
 </defs>
 <g id="Plan_x0020_1">
  <metadata id="CorelCorpID_0Corel-Layer"/>
  <g id="_217945024">
   <circle class="fil0" cx="212" cy="212" r="212"/>
   <circle class="fil1" cx="212" cy="212" r="173"/>
  </g>
  <path class="fil2" d="M209 85c70,0 127,57 127,127 0,70 -57,127 -127,127 -70,0 -127,-57 -127,-127 0,-70 57,-127 127,-127zm0 44c46,0 83,37 83,83 0,46 -37,83 -83,83 -46,0 -83,-37 -83,-83 0,-46 37,-83 83,-83z"/>
 </g>
</svg>
