<?xml version="1.0" encoding="iso-8859-1"?>
<!-- Generator: Adobe Illustrator 19.0.0, SVG Export Plug-In . SVG Version: 6.00 Build 0)  -->
<svg version="1.1" id="Capa_1" xmlns="http://www.w3.org/2000/svg" xmlns:xlink="http://www.w3.org/1999/xlink" x="0px" y="0px"
	 viewBox="0 0 384 384" style="enable-background:new 0 0 384 384;" xml:space="preserve">
<g>
	<g>
		<polygon points="85.088,213.877 85.088,363.232 127.755,363.232 127.755,256.544 255.755,256.544 255.755,363.232 
			298.421,363.232 298.421,213.877 		"/>
	</g>
</g>
<g>
	<g>
		<path d="M341.376,0h-42.592h-0.117h-42.549v86.197h-42.443V0H85.333h-3.488c-11.787,0-27.819,6.891-36,15.584L14.635,48.789
			C6.56,57.397,0,73.941,0,85.717v255.68C0,364.917,19.04,384,42.56,384h298.88c23.499,0,42.56-19.04,42.56-42.56V42.56
			C384,19.061,364.971,0,341.376,0z M341.333,341.333H42.667V85.717c0-0.917,2.421-7.008,3.072-7.701l31.211-33.205
			c0.075-0.075,4.843-2.133,4.907-2.133h3.477h85.675v86.197h127.776V42.667h42.549V341.333z"/>
	</g>
</g>
<g>
</g>
<g>
</g>
<g>
</g>
<g>
</g>
<g>
</g>
<g>
</g>
<g>
</g>
<g>
</g>
<g>
</g>
<g>
</g>
<g>
</g>
<g>
</g>
<g>
</g>
<g>
</g>
<g>
</g>
</svg>
