<?xml version="1.0" encoding="iso-8859-1"?>
<!-- Generator: Adobe Illustrator 19.0.0, SVG Export Plug-In . SVG Version: 6.00 Build 0)  -->
<svg version="1.1" id="Capa_1" xmlns="http://www.w3.org/2000/svg" xmlns:xlink="http://www.w3.org/1999/xlink" x="0px" y="0px"
	 viewBox="0 0 384 384" style="enable-background:new 0 0 384 384;" xml:space="preserve">
<g>
	<g>
		<path d="M256,0v192c0,35.346-28.654,64-64,64s-64-28.654-64-64V0H0v192c0,106.039,85.961,192,192,192s192-85.961,192-192V0H256z
			 M341.333,192c0,82.475-66.859,149.333-149.333,149.333S42.667,274.475,42.667,192V42.667h42.667V192
			c0,58.91,47.756,106.667,106.667,106.667S298.667,250.91,298.667,192V42.667h42.667V192z"/>
	</g>
</g>
<g>
	<g>
		<rect x="21.526" y="85.333" width="85.454" height="42.667"/>
	</g>
</g>
<g>
	<g>
		<rect x="256.193" y="85.333" width="85.454" height="42.667"/>
	</g>
</g>
<g>
</g>
<g>
</g>
<g>
</g>
<g>
</g>
<g>
</g>
<g>
</g>
<g>
</g>
<g>
</g>
<g>
</g>
<g>
</g>
<g>
</g>
<g>
</g>
<g>
</g>
<g>
</g>
<g>
</g>
</svg>
