<?xml version="1.0" encoding="iso-8859-1"?>
<!-- Generator: Adobe Illustrator 19.0.0, SVG Export Plug-In . SVG Version: 6.00 Build 0)  -->
<svg version="1.1" id="Capa_1" xmlns="http://www.w3.org/2000/svg" xmlns:xlink="http://www.w3.org/1999/xlink" x="0px" y="0px"
	 viewBox="0 0 426.667 426.667" style="enable-background:new 0 0 426.667 426.667;" xml:space="preserve">
<g>
	<g>
		<path d="M393.196,243.277l-10.828-6.251c1.075-7.743,1.631-15.653,1.631-23.692s-0.556-15.949-1.631-23.692l10.828-6.251
			c20.334-11.74,27.348-37.824,15.578-58.21l-21.378-37.028c-11.73-20.316-37.831-27.374-58.21-15.608l-10.83,6.253
			c-12.411-9.702-26.2-17.725-41.023-23.725V42.576C277.333,19.107,258.251,0,234.711,0h-42.756
			c-23.459,0-42.622,19.062-42.622,42.576v12.497c-14.823,6-28.612,14.023-41.023,23.725L97.48,72.545
			c-20.339-11.743-46.44-4.777-58.21,15.608L17.892,125.18c-11.73,20.316-4.795,46.447,15.578,58.21l10.828,6.251
			c-1.075,7.743-1.631,15.653-1.631,23.692s0.556,15.949,1.631,23.692l-10.828,6.251c-20.334,11.74-27.348,37.824-15.578,58.21
			l21.378,37.027C51,358.83,77.101,365.888,97.48,354.122l10.831-6.253c12.411,9.702,26.2,17.725,41.023,23.725v12.497
			c0,23.469,19.083,42.576,42.622,42.576h42.756c23.459,0,42.622-19.062,42.622-42.576v-12.497
			c14.823-6,28.612-14.023,41.023-23.725l10.83,6.253c20.339,11.743,46.44,4.777,58.21-15.608l21.378-37.027
			C420.504,281.17,413.57,255.039,393.196,243.277z M340.108,195.511c0.814,5.861,1.226,11.809,1.226,17.823
			s-0.412,11.962-1.226,17.823l-3.952,28.455l35.646,20.58l-21.333,36.95l-35.71-20.617l-22.68,17.73
			c-9.381,7.333-19.729,13.327-30.754,17.79l-26.658,10.791V384H192v-41.164l-26.658-10.791
			c-11.025-4.463-21.374-10.457-30.754-17.79l-22.68-17.73l-35.71,20.617l-21.333-36.95l35.646-20.58l-3.952-28.455
			c-0.814-5.861-1.226-11.809-1.226-17.823s0.412-11.962,1.226-17.823l3.952-28.455l-35.646-20.58l21.333-36.95l35.71,20.617
			l22.68-17.73c9.381-7.333,19.729-13.327,30.754-17.79L192,83.831V42.667h42.667v41.164l26.658,10.791
			c11.025,4.463,21.374,10.457,30.754,17.79l22.68,17.73l35.71-20.617l21.333,36.95l-35.646,20.58L340.108,195.511z"/>
	</g>
</g>
<g>
	<g>
		<path d="M213.333,128C166.205,128,128,166.205,128,213.333s38.205,85.333,85.333,85.333s85.333-38.205,85.333-85.333
			S260.462,128,213.333,128z M213.333,256c-23.564,0-42.667-19.103-42.667-42.667s19.103-42.667,42.667-42.667
			S256,189.769,256,213.333S236.897,256,213.333,256z"/>
	</g>
</g>
<g>
</g>
<g>
</g>
<g>
</g>
<g>
</g>
<g>
</g>
<g>
</g>
<g>
</g>
<g>
</g>
<g>
</g>
<g>
</g>
<g>
</g>
<g>
</g>
<g>
</g>
<g>
</g>
<g>
</g>
</svg>
