<?xml version="1.0" encoding="iso-8859-1"?>
<!-- Generator: Adobe Illustrator 19.0.0, SVG Export Plug-In . SVG Version: 6.00 Build 0)  -->
<svg version="1.1" id="Capa_1" xmlns="http://www.w3.org/2000/svg" xmlns:xlink="http://www.w3.org/1999/xlink" x="0px" y="0px"
	 viewBox="0 0 512 512" style="enable-background:new 0 0 512 512;" xml:space="preserve">
<g>
	<g>
		<path d="M62.29,180l26.27,291.07C90.7,494.41,109.95,512,133.39,512H378.6c23.44,0,42.69-17.59,44.83-40.93L449.7,180H62.29z
			 M178.95,451.99c-0.24,0.01-0.47,0.01-0.68,0.01c-7.97,0-14.62-6.27-14.97-14.31l-9.55-212c-0.38-8.28,6.01-15.29,14.3-15.67
			c9.37-0.27,15.29,6.05,15.64,14.29l9.55,212C193.62,444.59,187.24,451.61,178.95,451.99z M271,437c0,8.29-6.71,15-15,15
			c-8.29,0-15-6.71-15-15V225c0-8.29,6.71-15,15-15c8.29,0,15,6.71,15,15V437z M348.69,437.69c-0.35,8.04-7,14.31-14.97,14.31
			c-0.2,0-0.44,0-0.67-0.01c-8.29-0.38-14.68-7.4-14.3-15.68l9.55-212c0.38-8.24,6.33-14.44,15.65-14.29
			c8.29,0.38,14.67,7.39,14.29,15.67L348.69,437.69z"/>
	</g>
</g>
<g>
	<g>
		<path d="M406,60h-45V45c0-24.81-20.19-45-45-45H196c-24.82,0-45,20.19-45,45v15h-45c-41.37,0-75,33.65-75,75v15h450v-15
			C481,93.65,447.36,60,406,60z M331,60H181V45c0-8.28,6.73-15,15-15h120c8.26,0,15,6.72,15,15V60z"/>
	</g>
</g>
<g>
</g>
<g>
</g>
<g>
</g>
<g>
</g>
<g>
</g>
<g>
</g>
<g>
</g>
<g>
</g>
<g>
</g>
<g>
</g>
<g>
</g>
<g>
</g>
<g>
</g>
<g>
</g>
<g>
</g>
</svg>
